# xmcd
#
# Track frame offsets:
#	150
#	12232
#	22436
#	37728
#	55302
#	66082
#	77927
#	87209
#	101632
#	116346
#	131026
#	140678
#	152271
#	164507
#
# Disc length: 2389 seconds
#
# Revision: 0
# Processed by: cddbd v1.5.2PL0 Copyright (c) Steve Scherf et al.
# Submitted via: EasyCDDAExtractor 15.3.0.1
#
DISCID=b709530e
DTITLE=Quebe Sisters Band - Timeless
DYEAR=1900
DGENRE=
TTITLE0=So Long To The Red River Valley
TTITLE1=Shame On You
TTITLE2=Take The 'A' Train
TTITLE3=Georgia On My Mind
TTITLE4=There's A Rainbow Over The Range
TTITLE5=Along The Navajo Trail
TTITLE6=Twin Guitar Special
TTITLE7=Tumbling Tumbleweeds
TTITLE8=You Don't Care What Happens To Me
TTITLE9=Across The Alley From The Alamo
TTITLE10=Speed The Plow-Maid Behind The Bar-Temperance Reel
TTITLE11=Roly Poly
TTITLE12=Air Mail Special
TTITLE13=There's A Gold Mine In The Sky
EXTD=
EXTT0=
EXTT1=
EXTT2=
EXTT3=
EXTT4=
EXTT5=
EXTT6=
EXTT7=
EXTT8=
EXTT9=
EXTT10=
EXTT11=
EXTT12=
EXTT13=
PLAYORDER=
